%TF.GenerationSoftware,KiCad,Pcbnew,9.0.0*%
%TF.CreationDate,2026-05-04T16:07:50+03:00*%
%TF.ProjectId,Mini Project,4d696e69-2050-4726-9f6a-6563742e6b69,rev?*%
%TF.SameCoordinates,Original*%
%TF.FileFunction,Legend,Bot*%
%TF.FilePolarity,Positive*%
%FSLAX46Y46*%
G04 Gerber Fmt 4.6, Leading zero omitted, Abs format (unit mm)*
G04 Created by KiCad (PCBNEW 9.0.0) date 2026-05-04 16:07:50*
%MOMM*%
%LPD*%
G01*
G04 APERTURE LIST*
%ADD10C,0.100000*%
G04 APERTURE END LIST*
D10*
X196452856Y-52003609D02*
X196119523Y-52003609D01*
X195976666Y-52527419D02*
X196452856Y-52527419D01*
X196452856Y-52527419D02*
X196452856Y-51527419D01*
X196452856Y-51527419D02*
X195976666Y-51527419D01*
X195595713Y-52479800D02*
X195452856Y-52527419D01*
X195452856Y-52527419D02*
X195214761Y-52527419D01*
X195214761Y-52527419D02*
X195119523Y-52479800D01*
X195119523Y-52479800D02*
X195071904Y-52432180D01*
X195071904Y-52432180D02*
X195024285Y-52336942D01*
X195024285Y-52336942D02*
X195024285Y-52241704D01*
X195024285Y-52241704D02*
X195071904Y-52146466D01*
X195071904Y-52146466D02*
X195119523Y-52098847D01*
X195119523Y-52098847D02*
X195214761Y-52051228D01*
X195214761Y-52051228D02*
X195405237Y-52003609D01*
X195405237Y-52003609D02*
X195500475Y-51955990D01*
X195500475Y-51955990D02*
X195548094Y-51908371D01*
X195548094Y-51908371D02*
X195595713Y-51813133D01*
X195595713Y-51813133D02*
X195595713Y-51717895D01*
X195595713Y-51717895D02*
X195548094Y-51622657D01*
X195548094Y-51622657D02*
X195500475Y-51575038D01*
X195500475Y-51575038D02*
X195405237Y-51527419D01*
X195405237Y-51527419D02*
X195167142Y-51527419D01*
X195167142Y-51527419D02*
X195024285Y-51575038D01*
X194595713Y-52527419D02*
X194595713Y-51527419D01*
X194595713Y-51527419D02*
X194214761Y-51527419D01*
X194214761Y-51527419D02*
X194119523Y-51575038D01*
X194119523Y-51575038D02*
X194071904Y-51622657D01*
X194071904Y-51622657D02*
X194024285Y-51717895D01*
X194024285Y-51717895D02*
X194024285Y-51860752D01*
X194024285Y-51860752D02*
X194071904Y-51955990D01*
X194071904Y-51955990D02*
X194119523Y-52003609D01*
X194119523Y-52003609D02*
X194214761Y-52051228D01*
X194214761Y-52051228D02*
X194595713Y-52051228D01*
X193690951Y-51527419D02*
X193071904Y-51527419D01*
X193071904Y-51527419D02*
X193405237Y-51908371D01*
X193405237Y-51908371D02*
X193262380Y-51908371D01*
X193262380Y-51908371D02*
X193167142Y-51955990D01*
X193167142Y-51955990D02*
X193119523Y-52003609D01*
X193119523Y-52003609D02*
X193071904Y-52098847D01*
X193071904Y-52098847D02*
X193071904Y-52336942D01*
X193071904Y-52336942D02*
X193119523Y-52432180D01*
X193119523Y-52432180D02*
X193167142Y-52479800D01*
X193167142Y-52479800D02*
X193262380Y-52527419D01*
X193262380Y-52527419D02*
X193548094Y-52527419D01*
X193548094Y-52527419D02*
X193643332Y-52479800D01*
X193643332Y-52479800D02*
X193690951Y-52432180D01*
X192690951Y-51622657D02*
X192643332Y-51575038D01*
X192643332Y-51575038D02*
X192548094Y-51527419D01*
X192548094Y-51527419D02*
X192309999Y-51527419D01*
X192309999Y-51527419D02*
X192214761Y-51575038D01*
X192214761Y-51575038D02*
X192167142Y-51622657D01*
X192167142Y-51622657D02*
X192119523Y-51717895D01*
X192119523Y-51717895D02*
X192119523Y-51813133D01*
X192119523Y-51813133D02*
X192167142Y-51955990D01*
X192167142Y-51955990D02*
X192738570Y-52527419D01*
X192738570Y-52527419D02*
X192119523Y-52527419D01*
M02*
