M48
; DRILL file {KiCad 9.0.0} date 2026-05-04T16:07:48+0300
; FORMAT={-:-/ absolute / metric / decimal}
; #@! TF.CreationDate,2026-05-04T16:07:48+03:00
; #@! TF.GenerationSoftware,Kicad,Pcbnew,9.0.0
; #@! TF.FileFunction,Plated,1,2,PTH
FMAT,2
METRIC
; #@! TA.AperFunction,Plated,PTH,ViaDrill
T1C0.300
; #@! TA.AperFunction,Plated,PTH,ComponentDrill
T2C0.800
; #@! TA.AperFunction,Plated,PTH,ComponentDrill
T3C1.000
; #@! TA.AperFunction,Plated,PTH,ComponentDrill
T4C1.100
; #@! TA.AperFunction,Plated,PTH,ComponentDrill
T5C2.000
%
G90
G05
T1
X165.1Y-92.456
X167.64Y-53.34
X170.18Y-38.735
X170.18Y-55.88
X186.69Y-55.88
X186.69Y-65.405
X198.755Y-34.925
X200.025Y-55.88
X203.2Y-46.99
T2
X151.638Y-102.108
X154.198Y-99.06
X156.698Y-99.06
X159.258Y-102.108
X165.1Y-94.234
X165.1Y-101.854
X167.64Y-58.42
X167.64Y-60.96
X167.64Y-63.5
X175.26Y-58.42
X175.26Y-60.96
X175.26Y-63.5
X193.08Y-67.31
X195.58Y-67.31
T3
X152.4Y-55.88
X153.67Y-91.44
X154.94Y-55.88
X157.48Y-55.88
X158.75Y-91.44
X160.02Y-55.88
X160.45Y-27.44
X162.99Y-27.44
X165.53Y-27.44
X168.07Y-27.44
X180.34Y-33.02
X180.34Y-35.56
X180.34Y-38.1
X180.34Y-40.64
X180.34Y-43.18
X180.34Y-45.72
X180.34Y-48.26
X180.34Y-50.8
X180.34Y-53.34
X180.34Y-55.88
X180.34Y-58.42
X180.34Y-60.96
X180.34Y-63.5
X180.34Y-66.04
X180.34Y-68.58
X190.5Y-58.42
X190.5Y-60.96
X190.5Y-86.975
X193.04Y-58.42
X193.04Y-60.96
X195.58Y-58.42
X195.58Y-60.96
X195.58Y-86.975
X198.12Y-58.42
X198.12Y-60.96
X205.74Y-33.02
X205.74Y-35.56
X205.74Y-38.1
X205.74Y-40.64
X205.74Y-43.18
X205.74Y-45.72
X205.74Y-48.26
X205.74Y-50.8
X205.74Y-53.34
X205.74Y-55.88
X205.74Y-58.42
X205.74Y-60.96
X205.74Y-63.5
X205.74Y-66.04
X205.74Y-68.58
T4
X166.93Y-71.41
X166.93Y-75.91
X166.93Y-81.57
X166.93Y-86.07
X173.43Y-71.41
X173.43Y-75.91
X173.43Y-81.57
X173.43Y-86.07
X178.92Y-78.74
X178.92Y-83.24
X185.42Y-78.74
X185.42Y-83.24
X189.79Y-79.03
X189.79Y-83.53
X196.29Y-79.03
X196.29Y-83.53
T5
X153.26Y-27.94
X153.26Y-49.94
X175.26Y-27.94
X175.26Y-49.94
M30
