%TF.GenerationSoftware,KiCad,Pcbnew,9.0.0*%
%TF.CreationDate,2026-05-04T16:07:50+03:00*%
%TF.ProjectId,Mini Project,4d696e69-2050-4726-9f6a-6563742e6b69,rev?*%
%TF.SameCoordinates,Original*%
%TF.FileFunction,Copper,L1,Top*%
%TF.FilePolarity,Positive*%
%FSLAX46Y46*%
G04 Gerber Fmt 4.6, Leading zero omitted, Abs format (unit mm)*
G04 Created by KiCad (PCBNEW 9.0.0) date 2026-05-04 16:07:50*
%MOMM*%
%LPD*%
G01*
G04 APERTURE LIST*
%TA.AperFunction,ComponentPad*%
%ADD10C,1.700000*%
%TD*%
%TA.AperFunction,ComponentPad*%
%ADD11C,2.000000*%
%TD*%
%TA.AperFunction,ComponentPad*%
%ADD12C,1.600000*%
%TD*%
%TA.AperFunction,ComponentPad*%
%ADD13O,1.600000X1.600000*%
%TD*%
%TA.AperFunction,ComponentPad*%
%ADD14R,1.600000X1.600000*%
%TD*%
%TA.AperFunction,ComponentPad*%
%ADD15R,1.508000X1.508000*%
%TD*%
%TA.AperFunction,ComponentPad*%
%ADD16C,1.508000*%
%TD*%
%TA.AperFunction,ComponentPad*%
%ADD17C,3.000000*%
%TD*%
%TA.AperFunction,ViaPad*%
%ADD18C,0.600000*%
%TD*%
%TA.AperFunction,ViaPad*%
%ADD19C,0.500000*%
%TD*%
%TA.AperFunction,Conductor*%
%ADD20C,0.500000*%
%TD*%
G04 APERTURE END LIST*
D10*
%TO.P,amp1,1,VCC*%
%TO.N,5V*%
X160020000Y-55880000D03*
%TO.P,amp1,2,IN*%
%TO.N,Net-(amp1-IN)*%
X157480000Y-55880000D03*
%TO.P,amp1,3,GND*%
%TO.N,GND*%
X154940000Y-55880000D03*
%TO.P,amp1,4,GND*%
X152400000Y-55880000D03*
D11*
%TO.P,amp1,5,OUT*%
%TO.N,Net-(Speaker1-IN)*%
X158750000Y-91440000D03*
%TO.P,amp1,6,GND*%
%TO.N,GND*%
X153670000Y-91440000D03*
%TD*%
%TO.P,BTN_UP,1,1*%
%TO.N,Net-(ESP32-D32)*%
X166930000Y-71410000D03*
X173430000Y-71410000D03*
%TO.P,BTN_UP,2,2*%
%TO.N,GND*%
X166930000Y-75910000D03*
X173430000Y-75910000D03*
%TD*%
D12*
%TO.P,C2,1*%
%TO.N,Net-(amp1-IN)*%
X156698000Y-99060000D03*
%TO.P,C2,2*%
%TO.N,GND*%
X154198000Y-99060000D03*
%TD*%
D11*
%TO.P,BTN_DOWN,1,1*%
%TO.N,Net-(ESP32-D33)*%
X166930000Y-81570000D03*
X173430000Y-81570000D03*
%TO.P,BTN_DOWN,2,2*%
%TO.N,GND*%
X166930000Y-86070000D03*
X173430000Y-86070000D03*
%TD*%
D12*
%TO.P,R1,1*%
%TO.N,dac_out*%
X165100000Y-94234000D03*
D13*
%TO.P,R1,2*%
%TO.N,Net-(amp1-IN)*%
X165100000Y-101854000D03*
%TD*%
D10*
%TO.P,Speaker1,1,IN*%
%TO.N,Net-(Speaker1-IN)*%
X195580000Y-86974691D03*
%TO.P,Speaker1,2,GND*%
%TO.N,GND*%
X190500000Y-86974691D03*
%TD*%
D12*
%TO.P,R2,1*%
%TO.N,Net-(amp1-IN)*%
X159258000Y-102108000D03*
D13*
%TO.P,R2,2*%
%TO.N,GND*%
X151638000Y-102108000D03*
%TD*%
D10*
%TO.P,MIC1,1,SD*%
%TO.N,SD*%
X175260000Y-63500000D03*
%TO.P,MIC1,2,VCC*%
%TO.N,VCC*%
X175260000Y-60960000D03*
%TO.P,MIC1,3,GND*%
%TO.N,GND*%
X175260000Y-58420000D03*
%TO.P,MIC1,4,L/R*%
X167640000Y-58420000D03*
%TO.P,MIC1,5,WS*%
%TO.N,WS*%
X167640000Y-60960000D03*
%TO.P,MIC1,6,SCK*%
%TO.N,SCK_M*%
X167640000Y-63500000D03*
%TD*%
D11*
%TO.P,BTN_BACK,1,1*%
%TO.N,Net-(ESP32-D14)*%
X178920000Y-78740000D03*
X185420000Y-78740000D03*
%TO.P,BTN_BACK,2,2*%
%TO.N,GND*%
X178920000Y-83240000D03*
X185420000Y-83240000D03*
%TD*%
D10*
%TO.P,nrf1,1,GND*%
%TO.N,VCC*%
X198120000Y-58420000D03*
%TO.P,nrf1,2,VCC*%
%TO.N,GND*%
X198120000Y-60960000D03*
%TO.P,nrf1,3,CE*%
%TO.N,CE*%
X195580000Y-60960000D03*
%TO.P,nrf1,4,CSN*%
%TO.N,CSN*%
X195580000Y-58420000D03*
%TO.P,nrf1,5,SCK*%
%TO.N,SCK*%
X193040000Y-60960000D03*
%TO.P,nrf1,6,MOSI*%
%TO.N,MOSI*%
X193040000Y-58420000D03*
%TO.P,nrf1,7,MISO*%
%TO.N,MISO*%
X190500000Y-60960000D03*
%TO.P,nrf1,8,IRQ*%
%TO.N,unconnected-(nrf1-IRQ-Pad8)*%
X190500000Y-58420000D03*
%TD*%
D14*
%TO.P,C1,1*%
%TO.N,VCC*%
X195580000Y-67310000D03*
D12*
%TO.P,C1,2*%
%TO.N,GND*%
X193080000Y-67310000D03*
%TD*%
D15*
%TO.P,U1,1,GND*%
%TO.N,GND*%
X160450000Y-27440000D03*
D16*
%TO.P,U1,2,VCC_IN*%
%TO.N,VCC*%
X162990000Y-27440000D03*
%TO.P,U1,3,SCL*%
%TO.N,SCL*%
X165530000Y-27440000D03*
%TO.P,U1,4,SDA*%
%TO.N,SDA*%
X168070000Y-27440000D03*
D17*
%TO.P,U1,S1*%
%TO.N,N/C*%
X153260000Y-27940000D03*
%TO.P,U1,S2*%
X175260000Y-27940000D03*
%TO.P,U1,S3*%
X175260000Y-49940000D03*
%TO.P,U1,S4*%
X153260000Y-49940000D03*
%TD*%
D11*
%TO.P,BTN_SELECT,1,1*%
%TO.N,Net-(ESP32-D27)*%
X189790000Y-79030000D03*
X196290000Y-79030000D03*
%TO.P,BTN_SELECT,2,2*%
%TO.N,GND*%
X189790000Y-83530000D03*
X196290000Y-83530000D03*
%TD*%
D10*
%TO.P,ESP32,1,3V3*%
%TO.N,VCC*%
X205740000Y-33020000D03*
%TO.P,ESP32,2,GND*%
%TO.N,GND*%
X205740000Y-35560000D03*
%TO.P,ESP32,3,D15*%
%TO.N,unconnected-(ESP32-D15-Pad3)*%
X205740000Y-38100000D03*
%TO.P,ESP32,4,D2*%
%TO.N,unconnected-(ESP32-D2-Pad4)*%
X205740000Y-40640000D03*
%TO.P,ESP32,5,D4*%
%TO.N,CE*%
X205740000Y-43180000D03*
%TO.P,ESP32,6,D16*%
%TO.N,WS*%
X205740000Y-45720000D03*
%TO.P,ESP32,7,D17*%
%TO.N,SD*%
X205740000Y-48260000D03*
%TO.P,ESP32,8,D5*%
%TO.N,CSN*%
X205740000Y-50800000D03*
%TO.P,ESP32,9,D18*%
%TO.N,SCK*%
X205740000Y-53340000D03*
%TO.P,ESP32,10,D19*%
%TO.N,MISO*%
X205740000Y-55880000D03*
%TO.P,ESP32,11,D21*%
%TO.N,SDA*%
X205740000Y-58420000D03*
%TO.P,ESP32,12,RX0*%
%TO.N,unconnected-(ESP32-RX0-Pad12)*%
X205740000Y-60960000D03*
%TO.P,ESP32,13,TX0*%
%TO.N,unconnected-(ESP32-TX0-Pad13)*%
X205740000Y-63500000D03*
%TO.P,ESP32,14,D22*%
%TO.N,SCL*%
X205740000Y-66040000D03*
%TO.P,ESP32,15,D23*%
%TO.N,MOSI*%
X205740000Y-68580000D03*
%TO.P,ESP32,16,VIN*%
%TO.N,5V*%
X180340000Y-33020000D03*
%TO.P,ESP32,17,GND*%
%TO.N,unconnected-(ESP32-GND-Pad17)*%
X180340000Y-35560000D03*
%TO.P,ESP32,18,D13*%
%TO.N,SCK_M*%
X180340000Y-38100000D03*
%TO.P,ESP32,19,D12*%
%TO.N,unconnected-(ESP32-D12-Pad19)*%
X180340000Y-40640000D03*
%TO.P,ESP32,20,D14*%
%TO.N,Net-(ESP32-D14)*%
X180340000Y-43180000D03*
%TO.P,ESP32,21,D27*%
%TO.N,Net-(ESP32-D27)*%
X180340000Y-45720000D03*
%TO.P,ESP32,22,D26*%
%TO.N,unconnected-(ESP32-D26-Pad22)*%
X180340000Y-48260000D03*
%TO.P,ESP32,23,D25*%
%TO.N,dac_out*%
X180340000Y-50800000D03*
%TO.P,ESP32,24,D33*%
%TO.N,Net-(ESP32-D33)*%
X180340000Y-53340000D03*
%TO.P,ESP32,25,D32*%
%TO.N,Net-(ESP32-D32)*%
X180340000Y-55880000D03*
%TO.P,ESP32,26,D35*%
%TO.N,unconnected-(ESP32-D35-Pad26)*%
X180340000Y-58420000D03*
%TO.P,ESP32,27,D34*%
%TO.N,unconnected-(ESP32-D34-Pad27)*%
X180340000Y-60960000D03*
%TO.P,ESP32,28,VN*%
%TO.N,unconnected-(ESP32-VN-Pad28)*%
X180340000Y-63500000D03*
%TO.P,ESP32,29,VP*%
%TO.N,unconnected-(ESP32-VP-Pad29)*%
X180340000Y-66040000D03*
%TO.P,ESP32,30,EN*%
%TO.N,unconnected-(ESP32-EN-Pad30)*%
X180340000Y-68580000D03*
%TD*%
D18*
%TO.N,Net-(ESP32-D14)*%
X186690000Y-65405000D03*
X186690000Y-55880000D03*
D19*
%TO.N,VCC*%
X170180000Y-55880000D03*
X170180000Y-38735000D03*
D18*
%TO.N,SCL*%
X198755000Y-34925000D03*
X203200000Y-46990000D03*
%TO.N,dac_out*%
X167640000Y-53340000D03*
X165100000Y-92456000D03*
%TO.N,CE*%
X200025000Y-55880000D03*
%TD*%
D20*
%TO.N,GND*%
X167640000Y-58420000D02*
X167640000Y-55880000D01*
X167640000Y-55880000D02*
X168656000Y-54864000D01*
X175260000Y-55372000D02*
X175260000Y-58420000D01*
X168656000Y-54864000D02*
X174752000Y-54864000D01*
X174752000Y-54864000D02*
X175260000Y-55372000D01*
%TO.N,5V*%
X160020000Y-53340000D02*
X180340000Y-33020000D01*
X160020000Y-55880000D02*
X160020000Y-53340000D01*
%TO.N,Net-(ESP32-D14)*%
X186690000Y-65405000D02*
X186690000Y-55880000D01*
%TO.N,VCC*%
X170180000Y-34630000D02*
X166030000Y-30480000D01*
X170180000Y-38735000D02*
X170180000Y-34630000D01*
X166370000Y-30480000D02*
X203200000Y-30480000D01*
X175260000Y-60960000D02*
X170180000Y-55880000D01*
X166030000Y-30480000D02*
X166370000Y-30480000D01*
X203200000Y-30480000D02*
X205740000Y-33020000D01*
X162990000Y-27440000D02*
X166030000Y-30480000D01*
%TO.N,SCL*%
X198755000Y-34925000D02*
X203200000Y-39370000D01*
X203200000Y-39370000D02*
X203200000Y-46990000D01*
%TO.N,Net-(Speaker1-IN)*%
X158750000Y-91440000D02*
X174244000Y-91440000D01*
X177800000Y-91440000D02*
X191114691Y-91440000D01*
X191114691Y-91440000D02*
X195580000Y-86974691D01*
X174244000Y-91440000D02*
X177800000Y-91440000D01*
%TO.N,dac_out*%
X167640000Y-53340000D02*
X177800000Y-53340000D01*
X165100000Y-92456000D02*
X165100000Y-94234000D01*
X177800000Y-53340000D02*
X180340000Y-50800000D01*
%TO.N,SD*%
X177800000Y-71120000D02*
X178435000Y-71755000D01*
X178435000Y-71755000D02*
X182880000Y-71755000D01*
X185420000Y-55245000D02*
X192405000Y-48260000D01*
X175260000Y-63500000D02*
X177800000Y-66040000D01*
X185420000Y-69215000D02*
X185420000Y-55245000D01*
X192405000Y-48260000D02*
X205740000Y-48260000D01*
X182880000Y-71755000D02*
X185420000Y-69215000D01*
X177800000Y-66040000D02*
X177800000Y-71120000D01*
%TO.N,CE*%
X198755000Y-63500000D02*
X200025000Y-62230000D01*
X196215000Y-63500000D02*
X198755000Y-63500000D01*
X195580000Y-62865000D02*
X196215000Y-63500000D01*
X195580000Y-60960000D02*
X195580000Y-62865000D01*
X200025000Y-62230000D02*
X200025000Y-60960000D01*
X200025000Y-60960000D02*
X200025000Y-55880000D01*
%TO.N,WS*%
X176530000Y-72390000D02*
X176530000Y-67945000D01*
X180975000Y-76835000D02*
X176530000Y-72390000D01*
X207645000Y-75565000D02*
X206375000Y-76835000D01*
X207645000Y-47625000D02*
X207645000Y-75565000D01*
X206375000Y-76835000D02*
X180975000Y-76835000D01*
X205740000Y-45720000D02*
X207645000Y-47625000D01*
X169545000Y-60960000D02*
X167640000Y-60960000D01*
X176530000Y-67945000D02*
X169545000Y-60960000D01*
%TO.N,MOSI*%
X187960000Y-57150000D02*
X187960000Y-72390000D01*
X203835000Y-71755000D02*
X203835000Y-69215000D01*
X203835000Y-69215000D02*
X204470000Y-68580000D01*
X193040000Y-58420000D02*
X193040000Y-57150000D01*
X189230000Y-55880000D02*
X187960000Y-57150000D01*
X191770000Y-55880000D02*
X189230000Y-55880000D01*
X187960000Y-72390000D02*
X190500000Y-74930000D01*
X200660000Y-74930000D02*
X203835000Y-71755000D01*
X193040000Y-57150000D02*
X191770000Y-55880000D01*
X190500000Y-74930000D02*
X200660000Y-74930000D01*
X204470000Y-68580000D02*
X205740000Y-68580000D01*
%TO.N,MISO*%
X204470000Y-55880000D02*
X205740000Y-55880000D01*
X202565000Y-70485000D02*
X202565000Y-57785000D01*
X199390000Y-73660000D02*
X202565000Y-70485000D01*
X202565000Y-57785000D02*
X204470000Y-55880000D01*
X189230000Y-71120000D02*
X191770000Y-73660000D01*
X189230000Y-62230000D02*
X189230000Y-71120000D01*
X191770000Y-73660000D02*
X199390000Y-73660000D01*
X190500000Y-60960000D02*
X189230000Y-62230000D01*
%TO.N,CSN*%
X203200000Y-50800000D02*
X195580000Y-58420000D01*
X205740000Y-50800000D02*
X203200000Y-50800000D01*
%TO.N,SCK*%
X201295000Y-67945000D02*
X201295000Y-56515000D01*
X190500000Y-63500000D02*
X190500000Y-70485000D01*
X193040000Y-60960000D02*
X190500000Y-63500000D01*
X197485000Y-71755000D02*
X201295000Y-67945000D01*
X190500000Y-70485000D02*
X191770000Y-71755000D01*
X201295000Y-56515000D02*
X204470000Y-53340000D01*
X204470000Y-53340000D02*
X205740000Y-53340000D01*
X191770000Y-71755000D02*
X197485000Y-71755000D01*
%TO.N,Net-(amp1-IN)*%
X156698000Y-99060000D02*
X156698000Y-100818000D01*
X156698000Y-99060000D02*
X156698000Y-56662000D01*
X156698000Y-56662000D02*
X157480000Y-55880000D01*
X156698000Y-100818000D02*
X157988000Y-102108000D01*
X159258000Y-102108000D02*
X164846000Y-102108000D01*
X157988000Y-102108000D02*
X159258000Y-102108000D01*
X164846000Y-102108000D02*
X165100000Y-101854000D01*
%TD*%
M02*
