%TF.GenerationSoftware,KiCad,Pcbnew,10.0.1*%
%TF.CreationDate,2026-05-07T18:55:21+03:00*%
%TF.ProjectId,Mini Project,4d696e69-2050-4726-9f6a-6563742e6b69,rev?*%
%TF.SameCoordinates,Original*%
%TF.FileFunction,Copper,L1,Top*%
%TF.FilePolarity,Positive*%
%FSLAX46Y46*%
G04 Gerber Fmt 4.6, Leading zero omitted, Abs format (unit mm)*
G04 Created by KiCad (PCBNEW 10.0.1) date 2026-05-07 18:55:21*
%MOMM*%
%LPD*%
G01*
G04 APERTURE LIST*
G04 Aperture macros list*
%AMRoundRect*
0 Rectangle with rounded corners*
0 $1 Rounding radius*
0 $2 $3 $4 $5 $6 $7 $8 $9 X,Y pos of 4 corners*
0 Add a 4 corners polygon primitive as box body*
4,1,4,$2,$3,$4,$5,$6,$7,$8,$9,$2,$3,0*
0 Add four circle primitives for the rounded corners*
1,1,$1+$1,$2,$3*
1,1,$1+$1,$4,$5*
1,1,$1+$1,$6,$7*
1,1,$1+$1,$8,$9*
0 Add four rect primitives between the rounded corners*
20,1,$1+$1,$2,$3,$4,$5,0*
20,1,$1+$1,$4,$5,$6,$7,0*
20,1,$1+$1,$6,$7,$8,$9,0*
20,1,$1+$1,$8,$9,$2,$3,0*%
G04 Aperture macros list end*
%TA.AperFunction,ComponentPad*%
%ADD10R,1.508000X1.508000*%
%TD*%
%TA.AperFunction,ComponentPad*%
%ADD11C,1.508000*%
%TD*%
%TA.AperFunction,ComponentPad*%
%ADD12C,3.000000*%
%TD*%
%TA.AperFunction,ComponentPad*%
%ADD13C,2.000000*%
%TD*%
%TA.AperFunction,ComponentPad*%
%ADD14C,1.700000*%
%TD*%
%TA.AperFunction,ComponentPad*%
%ADD15R,1.700000X1.700000*%
%TD*%
%TA.AperFunction,ComponentPad*%
%ADD16C,1.600000*%
%TD*%
%TA.AperFunction,ComponentPad*%
%ADD17R,2.000000X2.000000*%
%TD*%
%TA.AperFunction,ComponentPad*%
%ADD18RoundRect,0.250000X0.550000X0.550000X-0.550000X0.550000X-0.550000X-0.550000X0.550000X-0.550000X0*%
%TD*%
%TA.AperFunction,ViaPad*%
%ADD19C,0.600000*%
%TD*%
%TA.AperFunction,Conductor*%
%ADD20C,0.500000*%
%TD*%
G04 APERTURE END LIST*
D10*
%TO.P,OLED ,1,GND_1*%
%TO.N,GND*%
X130590000Y-46100000D03*
D11*
%TO.P,OLED ,2,VCC_2*%
%TO.N,+3.3V*%
X133130000Y-46100000D03*
%TO.P,OLED ,3,SCK_3*%
%TO.N,SCL*%
X135670000Y-46100000D03*
%TO.P,OLED ,4,SDA_4*%
%TO.N,SDA*%
X138210000Y-46100000D03*
D12*
%TO.P,OLED ,S1*%
%TO.N,N/C*%
X123400000Y-46600000D03*
%TO.P,OLED ,S2*%
X145400000Y-46600000D03*
%TO.P,OLED ,S3*%
X145400000Y-68600000D03*
%TO.P,OLED ,S4*%
X123400000Y-68600000D03*
%TD*%
D13*
%TO.P,S3,1,1_1*%
%TO.N,BTN_SELECT*%
X140800000Y-83799200D03*
X147300000Y-83799200D03*
%TO.P,S3,2,2_2*%
%TO.N,GND*%
X140800000Y-88299200D03*
X147300000Y-88299200D03*
%TD*%
%TO.P,S1,1,1_1*%
%TO.N,BTN_UP*%
X131300000Y-76300000D03*
X137800000Y-76300000D03*
%TO.P,S1,2,2_2*%
%TO.N,GND*%
X131300000Y-80800000D03*
X137800000Y-80800000D03*
%TD*%
%TO.P,S2,1,1_1*%
%TO.N,GND*%
X131300000Y-91300000D03*
X137800000Y-91300000D03*
%TO.P,S2,2,2_2*%
%TO.N,BTN_DOWN*%
X131300000Y-95800000D03*
X137800000Y-95800000D03*
%TD*%
D14*
%TO.P,MIC,1,SD_1*%
%TO.N,SD*%
X132000000Y-120420000D03*
%TO.P,MIC,2,VCC_2*%
%TO.N,+3.3V*%
X134540000Y-120420000D03*
D15*
%TO.P,MIC,3,GND_3*%
%TO.N,GND*%
X137080000Y-120420000D03*
D14*
%TO.P,MIC,4,L/R_4*%
X137080000Y-112800000D03*
%TO.P,MIC,5,WS_5*%
%TO.N,WS*%
X134540000Y-112800000D03*
%TO.P,MIC,6,SCK_6*%
%TO.N,SCK_M*%
X132000000Y-112800000D03*
%TD*%
D13*
%TO.P,S4,1,1_1*%
%TO.N,BTN_BACK*%
X121800000Y-83800000D03*
X128300000Y-83800000D03*
%TO.P,S4,2,2_2*%
%TO.N,GND*%
X121800000Y-88300000D03*
X128300000Y-88300000D03*
%TD*%
D16*
%TO.P,R1,1*%
%TO.N,dac_out*%
X156000000Y-99000000D03*
%TO.P,R1,2*%
%TO.N,Net-(U1-IN)*%
X156000000Y-91380000D03*
%TD*%
D14*
%TO.P,ESP32,1,3V3_1*%
%TO.N,+3.3V*%
X152420000Y-128600000D03*
D15*
%TO.P,ESP32,2,GND_2*%
%TO.N,GND*%
X149880000Y-128600000D03*
D14*
%TO.P,ESP32,3,D15_3*%
%TO.N,unconnected-(ESP32-D15-Pad3)*%
X147340000Y-128600000D03*
%TO.P,ESP32,4,D2_4*%
%TO.N,unconnected-(ESP32-D2-Pad4)*%
X144800000Y-128600000D03*
%TO.P,ESP32,5,D4_5*%
%TO.N,CE*%
X142260000Y-128600000D03*
%TO.P,ESP32,6,D16_6*%
%TO.N,WS*%
X139720000Y-128600000D03*
%TO.P,ESP32,7,D17_7*%
%TO.N,SD*%
X137180000Y-128600000D03*
%TO.P,ESP32,8,D5_8*%
%TO.N,CSN*%
X134640000Y-128600000D03*
%TO.P,ESP32,9,D18_9*%
%TO.N,SCK*%
X132100000Y-128600000D03*
%TO.P,ESP32,10,D19_10*%
%TO.N,MISO*%
X129560000Y-128600000D03*
%TO.P,ESP32,11,D21_11*%
%TO.N,SDA*%
X127020000Y-128600000D03*
%TO.P,ESP32,12,RX0_12*%
%TO.N,unconnected-(ESP32-RX0-Pad12)*%
X124480000Y-128600000D03*
%TO.P,ESP32,13,TX0_13*%
%TO.N,unconnected-(ESP32-TX0-Pad13)*%
X121940000Y-128600000D03*
%TO.P,ESP32,14,D22_14*%
%TO.N,SCL*%
X119400000Y-128600000D03*
%TO.P,ESP32,15,D23_15*%
%TO.N,MOSI*%
X116860000Y-128600000D03*
%TO.P,ESP32,16,VIN_16*%
%TO.N,+5V*%
X152420000Y-103200000D03*
D15*
%TO.P,ESP32,17,GND_17*%
%TO.N,GND*%
X149880000Y-103200000D03*
D14*
%TO.P,ESP32,18,D13_18*%
%TO.N,SCK_M*%
X147340000Y-103200000D03*
%TO.P,ESP32,19,D12_19*%
%TO.N,unconnected-(ESP32-D12-Pad19)*%
X144800000Y-103200000D03*
%TO.P,ESP32,20,D14_20*%
%TO.N,BTN_BACK*%
X142260000Y-103200000D03*
%TO.P,ESP32,21,D27_21*%
%TO.N,BTN_SELECT*%
X139720000Y-103200000D03*
%TO.P,ESP32,22,D26_22*%
%TO.N,unconnected-(ESP32-D26-Pad22)*%
X137180000Y-103200000D03*
%TO.P,ESP32,23,D25_23*%
%TO.N,dac_out*%
X134640000Y-103200000D03*
%TO.P,ESP32,24,D33_24*%
%TO.N,BTN_DOWN*%
X132100000Y-103200000D03*
%TO.P,ESP32,25,D32_25*%
%TO.N,BTN_UP*%
X129560000Y-103200000D03*
%TO.P,ESP32,26,D35_26*%
%TO.N,unconnected-(ESP32-D35-Pad26)*%
X127020000Y-103200000D03*
%TO.P,ESP32,27,D34_27*%
%TO.N,unconnected-(ESP32-D34-Pad27)*%
X124480000Y-103200000D03*
%TO.P,ESP32,28,VN_28*%
%TO.N,unconnected-(ESP32-VN-Pad28)*%
X121940000Y-103200000D03*
%TO.P,ESP32,29,VP_29*%
%TO.N,unconnected-(ESP32-VP-Pad29)*%
X119400000Y-103200000D03*
%TO.P,ESP32,30,EN_30*%
%TO.N,unconnected-(ESP32-EN-Pad30)*%
X116860000Y-103200000D03*
%TD*%
%TO.P,LM385,1,VCC_1*%
%TO.N,+5V*%
X159970000Y-87500000D03*
%TO.P,LM385,2,IN_2*%
%TO.N,Net-(U1-IN)*%
X157430000Y-87500000D03*
D15*
%TO.P,LM385,3,GND_3*%
%TO.N,GND*%
X154890000Y-87500000D03*
%TO.P,LM385,4,GND_4*%
X152350000Y-87500000D03*
D13*
%TO.P,LM385,5,OUT_5*%
%TO.N,Net-(J1-Pin_1)*%
X159130000Y-54080000D03*
D17*
%TO.P,LM385,6,GND_6*%
%TO.N,GND*%
X154130000Y-54040000D03*
%TD*%
D15*
%TO.P,nrf1,1,GND_1*%
%TO.N,GND*%
X116340000Y-54340000D03*
D14*
%TO.P,nrf1,2,VCC_2*%
%TO.N,+3.3V*%
X116340000Y-51800000D03*
%TO.P,nrf1,3,CE_3*%
%TO.N,CE*%
X113800000Y-54340000D03*
%TO.P,nrf1,4,CSN_4*%
%TO.N,CSN*%
X113800000Y-51800000D03*
%TO.P,nrf1,5,SCK_5*%
%TO.N,SCK*%
X111260000Y-54340000D03*
%TO.P,nrf1,6,MOSI_6*%
%TO.N,MOSI*%
X111260000Y-51800000D03*
%TO.P,nrf1,7,MISO_7*%
%TO.N,MISO*%
X108720000Y-54340000D03*
%TO.P,nrf1,8,IRQ_8*%
%TO.N,unconnected-(nrf1-IRQ-Pad8)*%
X108720000Y-51800000D03*
%TD*%
D18*
%TO.P,C3,1*%
%TO.N,+5V*%
X146900000Y-74400000D03*
D16*
%TO.P,C3,2*%
%TO.N,GND*%
X144400000Y-74400000D03*
%TD*%
%TO.P,C4,1*%
%TO.N,+5V*%
X146900000Y-80200000D03*
%TO.P,C4,2*%
%TO.N,GND*%
X144400000Y-80200000D03*
%TD*%
%TO.P,R2,1*%
%TO.N,Net-(U1-IN)*%
X161200000Y-91380000D03*
%TO.P,R2,2*%
%TO.N,GND*%
X161200000Y-99000000D03*
%TD*%
D15*
%TO.P,J1,1,Pin_1_1*%
%TO.N,Net-(J1-Pin_1)*%
X153675000Y-48200000D03*
D14*
%TO.P,J1,2,Pin_2_2*%
%TO.N,GND*%
X151135000Y-48200000D03*
%TD*%
D18*
%TO.P,C1,1*%
%TO.N,+3.3V*%
X114560000Y-62850000D03*
D16*
%TO.P,C1,2*%
%TO.N,GND*%
X112060000Y-62850000D03*
%TD*%
%TO.P,C2,1*%
%TO.N,Net-(U1-IN)*%
X151200000Y-96000000D03*
%TO.P,C2,2*%
%TO.N,GND*%
X151200000Y-93500000D03*
%TD*%
D19*
%TO.N,SCL*%
X118800000Y-98200000D03*
X112200000Y-100600000D03*
%TO.N,SDA*%
X126600000Y-77400000D03*
%TO.N,BTN_SELECT*%
X144000000Y-95500000D03*
%TO.N,BTN_UP*%
X135000000Y-84000000D03*
%TO.N,CE*%
X117400000Y-107400000D03*
X116600000Y-98400000D03*
X117400000Y-74600000D03*
%TO.N,CSN*%
X113200000Y-78800000D03*
%TO.N,SCK*%
X114000000Y-126000000D03*
X124800000Y-126000000D03*
%TD*%
%TO.N,GND*%
D20*
X112060000Y-62850000D02*
X112060000Y-58620000D01*
X112060000Y-58620000D02*
X116340000Y-54340000D01*
%TO.N,+3.3V*%
X117800000Y-51800000D02*
X118500000Y-52500000D01*
X118500000Y-55500000D02*
X114560000Y-59440000D01*
X115000000Y-108800000D02*
X122800000Y-116600000D01*
X132500000Y-43500000D02*
X133130000Y-44130000D01*
X121000000Y-43500000D02*
X132500000Y-43500000D01*
X130720000Y-116600000D02*
X134540000Y-120420000D01*
X116340000Y-51800000D02*
X120000000Y-48140000D01*
X115000000Y-63290000D02*
X115000000Y-108800000D01*
X120000000Y-48140000D02*
X120000000Y-44500000D01*
X116340000Y-51800000D02*
X117800000Y-51800000D01*
X120000000Y-44500000D02*
X121000000Y-43500000D01*
X122800000Y-116600000D02*
X130720000Y-116600000D01*
X114560000Y-59440000D02*
X114560000Y-62850000D01*
X114560000Y-62850000D02*
X115000000Y-63290000D01*
X118500000Y-52500000D02*
X118500000Y-55500000D01*
X133130000Y-44130000D02*
X133130000Y-46100000D01*
%TO.N,SCL*%
X112200000Y-100600000D02*
X111800000Y-100600000D01*
X111400000Y-120600000D02*
X119400000Y-128600000D01*
X111800000Y-100600000D02*
X111400000Y-101000000D01*
X118800000Y-62970000D02*
X118800000Y-98200000D01*
X135670000Y-46100000D02*
X118800000Y-62970000D01*
X111400000Y-101000000D02*
X111400000Y-120600000D01*
%TO.N,SDA*%
X126600000Y-77400000D02*
X126600000Y-57710000D01*
X126600000Y-57710000D02*
X138210000Y-46100000D01*
%TO.N,BTN_SELECT*%
X147300000Y-83799200D02*
X144000000Y-87099200D01*
X144000000Y-87099200D02*
X144000000Y-95500000D01*
X140800000Y-83799200D02*
X147300000Y-83799200D01*
%TO.N,BTN_UP*%
X137800000Y-76300000D02*
X135000000Y-79100000D01*
X135000000Y-79100000D02*
X135000000Y-84000000D01*
X131300000Y-76300000D02*
X137800000Y-76300000D01*
%TO.N,BTN_DOWN*%
X132500000Y-102800000D02*
X132100000Y-103200000D01*
X131300000Y-95800000D02*
X132500000Y-97000000D01*
X131300000Y-95800000D02*
X137800000Y-95800000D01*
X132500000Y-97000000D02*
X132500000Y-102800000D01*
%TO.N,WS*%
X135500000Y-116000000D02*
X138000000Y-116000000D01*
X134540000Y-112800000D02*
X134540000Y-115040000D01*
X134540000Y-115040000D02*
X135500000Y-116000000D01*
X138000000Y-116000000D02*
X139720000Y-117720000D01*
X139720000Y-117720000D02*
X139720000Y-128600000D01*
%TO.N,BTN_BACK*%
X132800000Y-83800000D02*
X142260000Y-93260000D01*
X121800000Y-83800000D02*
X128300000Y-83800000D01*
X142260000Y-93260000D02*
X142260000Y-103200000D01*
X128300000Y-83800000D02*
X132800000Y-83800000D01*
%TO.N,dac_out*%
X154200000Y-106400000D02*
X156000000Y-104600000D01*
X156000000Y-99000000D02*
X156000000Y-104600000D01*
X134640000Y-103200000D02*
X137840000Y-106400000D01*
X137840000Y-106400000D02*
X154200000Y-106400000D01*
%TO.N,Net-(U1-IN)*%
X151200000Y-96000000D02*
X155820000Y-91380000D01*
X155820000Y-91380000D02*
X156000000Y-91380000D01*
X161200000Y-91380000D02*
X156000000Y-91380000D01*
X156000000Y-91380000D02*
X156000000Y-88930000D01*
X156000000Y-88930000D02*
X157430000Y-87500000D01*
%TO.N,CE*%
X136800000Y-107400000D02*
X117400000Y-107400000D01*
X142260000Y-112860000D02*
X136800000Y-107400000D01*
X117400000Y-97600000D02*
X116600000Y-98400000D01*
X142260000Y-128600000D02*
X142260000Y-112860000D01*
X117400000Y-74600000D02*
X117400000Y-97600000D01*
%TO.N,CSN*%
X125600000Y-122000000D02*
X130600000Y-122000000D01*
X113200000Y-78800000D02*
X113200000Y-109600000D01*
X113200000Y-109600000D02*
X125600000Y-122000000D01*
X134640000Y-126040000D02*
X134640000Y-128600000D01*
X130600000Y-122000000D02*
X134640000Y-126040000D01*
%TO.N,SCK*%
X109000000Y-123200000D02*
X111800000Y-126000000D01*
X111260000Y-54340000D02*
X109000000Y-56600000D01*
X111800000Y-126000000D02*
X114000000Y-126000000D01*
X124800000Y-126000000D02*
X131200000Y-126000000D01*
X132100000Y-126900000D02*
X132100000Y-128600000D01*
X131200000Y-126000000D02*
X132100000Y-126900000D01*
X109000000Y-56600000D02*
X109000000Y-123200000D01*
%TO.N,MOSI*%
X110400000Y-128600000D02*
X116860000Y-128600000D01*
X106800000Y-51881522D02*
X106800000Y-125000000D01*
X108181522Y-50500000D02*
X106800000Y-51881522D01*
X109960000Y-50500000D02*
X108181522Y-50500000D01*
X111260000Y-51800000D02*
X109960000Y-50500000D01*
X106800000Y-125000000D02*
X110400000Y-128600000D01*
%TO.N,Net-(J1-Pin_1)*%
X159010000Y-54200000D02*
X157600000Y-54200000D01*
X157600000Y-54200000D02*
X153675000Y-50275000D01*
X159130000Y-54080000D02*
X159010000Y-54200000D01*
X153675000Y-50275000D02*
X153675000Y-48200000D01*
%TD*%
M02*
