M48
; DRILL file KiCad 10.0.1 date 2026-05-07T18:55:17
; FORMAT={-:-/ absolute / metric / decimal}
; #@! TF.CreationDate,2026-05-07T18:55:17+03:00
; #@! TF.GenerationSoftware,Kicad,Pcbnew,10.0.1
; #@! TF.FileFunction,Plated,1,2,PTH
FMAT,2
METRIC
; #@! TA.AperFunction,Plated,PTH,ViaDrill
T1C0.300
; #@! TA.AperFunction,Plated,PTH,ComponentDrill
T2C0.800
; #@! TA.AperFunction,Plated,PTH,ComponentDrill
T3C1.000
; #@! TA.AperFunction,Plated,PTH,ComponentDrill
T4C1.100
; #@! TA.AperFunction,Plated,PTH,ComponentDrill
T5C2.000
%
G90
G05
T1
X112.2Y-100.6
X113.2Y-78.8
X114.0Y-126.0
X116.6Y-98.4
X117.4Y-74.6
X117.4Y-107.4
X118.8Y-98.2
X124.8Y-126.0
X126.6Y-77.4
X135.0Y-84.0
X144.0Y-95.5
T2
X112.06Y-62.85
X114.56Y-62.85
X132.0Y-112.8
X132.0Y-120.42
X134.54Y-112.8
X134.54Y-120.42
X137.08Y-112.8
X137.08Y-120.42
X144.4Y-74.4
X144.4Y-80.2
X146.9Y-74.4
X146.9Y-80.2
X151.2Y-93.5
X151.2Y-96.0
X156.0Y-91.38
X156.0Y-99.0
X161.2Y-91.38
X161.2Y-99.0
T3
X108.72Y-51.8
X108.72Y-54.34
X111.26Y-51.8
X111.26Y-54.34
X113.8Y-51.8
X113.8Y-54.34
X116.34Y-51.8
X116.34Y-54.34
X116.86Y-103.2
X116.86Y-128.6
X119.4Y-103.2
X119.4Y-128.6
X121.94Y-103.2
X121.94Y-128.6
X124.48Y-103.2
X124.48Y-128.6
X127.02Y-103.2
X127.02Y-128.6
X129.56Y-103.2
X129.56Y-128.6
X130.59Y-46.1
X132.1Y-103.2
X132.1Y-128.6
X133.13Y-46.1
X134.64Y-103.2
X134.64Y-128.6
X135.67Y-46.1
X137.18Y-103.2
X137.18Y-128.6
X138.21Y-46.1
X139.72Y-103.2
X139.72Y-128.6
X142.26Y-103.2
X142.26Y-128.6
X144.8Y-103.2
X144.8Y-128.6
X147.34Y-103.2
X147.34Y-128.6
X149.88Y-103.2
X149.88Y-128.6
X151.135Y-48.2
X152.35Y-87.5
X152.42Y-103.2
X152.42Y-128.6
X153.675Y-48.2
X154.13Y-54.04
X154.89Y-87.5
X157.43Y-87.5
X159.13Y-54.08
X159.97Y-87.5
T4
X121.8Y-83.8
X121.8Y-88.3
X128.3Y-83.8
X128.3Y-88.3
X131.3Y-76.3
X131.3Y-80.8
X131.3Y-91.3
X131.3Y-95.8
X137.8Y-76.3
X137.8Y-80.8
X137.8Y-91.3
X137.8Y-95.8
X140.8Y-83.799
X140.8Y-88.299
X147.3Y-83.799
X147.3Y-88.299
T5
X123.4Y-46.6
X123.4Y-68.6
X145.4Y-46.6
X145.4Y-68.6
M30
