%TF.GenerationSoftware,KiCad,Pcbnew,10.0.1*%
%TF.CreationDate,2026-05-07T18:55:21+03:00*%
%TF.ProjectId,Mini Project,4d696e69-2050-4726-9f6a-6563742e6b69,rev?*%
%TF.SameCoordinates,Original*%
%TF.FileFunction,Legend,Bot*%
%TF.FilePolarity,Positive*%
%FSLAX46Y46*%
G04 Gerber Fmt 4.6, Leading zero omitted, Abs format (unit mm)*
G04 Created by KiCad (PCBNEW 10.0.1) date 2026-05-07 18:55:21*
%MOMM*%
%LPD*%
G01*
G04 APERTURE LIST*
%ADD10C,0.100000*%
%ADD11C,0.150000*%
%ADD12C,0.120000*%
G04 APERTURE END LIST*
D10*
X155966390Y-103686591D02*
X155466390Y-103519925D01*
X155466390Y-103519925D02*
X155966390Y-103353258D01*
X155466390Y-103186592D02*
X155799723Y-103186592D01*
X155966390Y-103186592D02*
X155942580Y-103210401D01*
X155942580Y-103210401D02*
X155918771Y-103186592D01*
X155918771Y-103186592D02*
X155942580Y-103162782D01*
X155942580Y-103162782D02*
X155966390Y-103186592D01*
X155966390Y-103186592D02*
X155918771Y-103186592D01*
X155799723Y-102948497D02*
X155466390Y-102948497D01*
X155752104Y-102948497D02*
X155775914Y-102924687D01*
X155775914Y-102924687D02*
X155799723Y-102877068D01*
X155799723Y-102877068D02*
X155799723Y-102805640D01*
X155799723Y-102805640D02*
X155775914Y-102758021D01*
X155775914Y-102758021D02*
X155728295Y-102734211D01*
X155728295Y-102734211D02*
X155466390Y-102734211D01*
D11*
X158824819Y-95023333D02*
X158348628Y-94690000D01*
X158824819Y-94451905D02*
X157824819Y-94451905D01*
X157824819Y-94451905D02*
X157824819Y-94832857D01*
X157824819Y-94832857D02*
X157872438Y-94928095D01*
X157872438Y-94928095D02*
X157920057Y-94975714D01*
X157920057Y-94975714D02*
X158015295Y-95023333D01*
X158015295Y-95023333D02*
X158158152Y-95023333D01*
X158158152Y-95023333D02*
X158253390Y-94975714D01*
X158253390Y-94975714D02*
X158301009Y-94928095D01*
X158301009Y-94928095D02*
X158348628Y-94832857D01*
X158348628Y-94832857D02*
X158348628Y-94451905D01*
X158824819Y-95975714D02*
X158824819Y-95404286D01*
X158824819Y-95690000D02*
X157824819Y-95690000D01*
X157824819Y-95690000D02*
X157967676Y-95594762D01*
X157967676Y-95594762D02*
X158062914Y-95499524D01*
X158062914Y-95499524D02*
X158110533Y-95404286D01*
D10*
X116926390Y-118042856D02*
X116926390Y-117709523D01*
X116402580Y-117566666D02*
X116402580Y-118042856D01*
X116402580Y-118042856D02*
X117402580Y-118042856D01*
X117402580Y-118042856D02*
X117402580Y-117566666D01*
X116450200Y-117185713D02*
X116402580Y-117042856D01*
X116402580Y-117042856D02*
X116402580Y-116804761D01*
X116402580Y-116804761D02*
X116450200Y-116709523D01*
X116450200Y-116709523D02*
X116497819Y-116661904D01*
X116497819Y-116661904D02*
X116593057Y-116614285D01*
X116593057Y-116614285D02*
X116688295Y-116614285D01*
X116688295Y-116614285D02*
X116783533Y-116661904D01*
X116783533Y-116661904D02*
X116831152Y-116709523D01*
X116831152Y-116709523D02*
X116878771Y-116804761D01*
X116878771Y-116804761D02*
X116926390Y-116995237D01*
X116926390Y-116995237D02*
X116974009Y-117090475D01*
X116974009Y-117090475D02*
X117021628Y-117138094D01*
X117021628Y-117138094D02*
X117116866Y-117185713D01*
X117116866Y-117185713D02*
X117212104Y-117185713D01*
X117212104Y-117185713D02*
X117307342Y-117138094D01*
X117307342Y-117138094D02*
X117354961Y-117090475D01*
X117354961Y-117090475D02*
X117402580Y-116995237D01*
X117402580Y-116995237D02*
X117402580Y-116757142D01*
X117402580Y-116757142D02*
X117354961Y-116614285D01*
X116402580Y-116185713D02*
X117402580Y-116185713D01*
X117402580Y-116185713D02*
X117402580Y-115804761D01*
X117402580Y-115804761D02*
X117354961Y-115709523D01*
X117354961Y-115709523D02*
X117307342Y-115661904D01*
X117307342Y-115661904D02*
X117212104Y-115614285D01*
X117212104Y-115614285D02*
X117069247Y-115614285D01*
X117069247Y-115614285D02*
X116974009Y-115661904D01*
X116974009Y-115661904D02*
X116926390Y-115709523D01*
X116926390Y-115709523D02*
X116878771Y-115804761D01*
X116878771Y-115804761D02*
X116878771Y-116185713D01*
X117402580Y-115280951D02*
X117402580Y-114661904D01*
X117402580Y-114661904D02*
X117021628Y-114995237D01*
X117021628Y-114995237D02*
X117021628Y-114852380D01*
X117021628Y-114852380D02*
X116974009Y-114757142D01*
X116974009Y-114757142D02*
X116926390Y-114709523D01*
X116926390Y-114709523D02*
X116831152Y-114661904D01*
X116831152Y-114661904D02*
X116593057Y-114661904D01*
X116593057Y-114661904D02*
X116497819Y-114709523D01*
X116497819Y-114709523D02*
X116450200Y-114757142D01*
X116450200Y-114757142D02*
X116402580Y-114852380D01*
X116402580Y-114852380D02*
X116402580Y-115138094D01*
X116402580Y-115138094D02*
X116450200Y-115233332D01*
X116450200Y-115233332D02*
X116497819Y-115280951D01*
X117307342Y-114280951D02*
X117354961Y-114233332D01*
X117354961Y-114233332D02*
X117402580Y-114138094D01*
X117402580Y-114138094D02*
X117402580Y-113899999D01*
X117402580Y-113899999D02*
X117354961Y-113804761D01*
X117354961Y-113804761D02*
X117307342Y-113757142D01*
X117307342Y-113757142D02*
X117212104Y-113709523D01*
X117212104Y-113709523D02*
X117116866Y-113709523D01*
X117116866Y-113709523D02*
X116974009Y-113757142D01*
X116974009Y-113757142D02*
X116402580Y-114328570D01*
X116402580Y-114328570D02*
X116402580Y-113709523D01*
X156212580Y-70775476D02*
X156212580Y-71251666D01*
X156212580Y-71251666D02*
X157212580Y-71251666D01*
X156212580Y-70442142D02*
X157212580Y-70442142D01*
X157212580Y-70442142D02*
X156498295Y-70108809D01*
X156498295Y-70108809D02*
X157212580Y-69775476D01*
X157212580Y-69775476D02*
X156212580Y-69775476D01*
X157212580Y-69394523D02*
X157212580Y-68775476D01*
X157212580Y-68775476D02*
X156831628Y-69108809D01*
X156831628Y-69108809D02*
X156831628Y-68965952D01*
X156831628Y-68965952D02*
X156784009Y-68870714D01*
X156784009Y-68870714D02*
X156736390Y-68823095D01*
X156736390Y-68823095D02*
X156641152Y-68775476D01*
X156641152Y-68775476D02*
X156403057Y-68775476D01*
X156403057Y-68775476D02*
X156307819Y-68823095D01*
X156307819Y-68823095D02*
X156260200Y-68870714D01*
X156260200Y-68870714D02*
X156212580Y-68965952D01*
X156212580Y-68965952D02*
X156212580Y-69251666D01*
X156212580Y-69251666D02*
X156260200Y-69346904D01*
X156260200Y-69346904D02*
X156307819Y-69394523D01*
X156784009Y-68204047D02*
X156831628Y-68299285D01*
X156831628Y-68299285D02*
X156879247Y-68346904D01*
X156879247Y-68346904D02*
X156974485Y-68394523D01*
X156974485Y-68394523D02*
X157022104Y-68394523D01*
X157022104Y-68394523D02*
X157117342Y-68346904D01*
X157117342Y-68346904D02*
X157164961Y-68299285D01*
X157164961Y-68299285D02*
X157212580Y-68204047D01*
X157212580Y-68204047D02*
X157212580Y-68013571D01*
X157212580Y-68013571D02*
X157164961Y-67918333D01*
X157164961Y-67918333D02*
X157117342Y-67870714D01*
X157117342Y-67870714D02*
X157022104Y-67823095D01*
X157022104Y-67823095D02*
X156974485Y-67823095D01*
X156974485Y-67823095D02*
X156879247Y-67870714D01*
X156879247Y-67870714D02*
X156831628Y-67918333D01*
X156831628Y-67918333D02*
X156784009Y-68013571D01*
X156784009Y-68013571D02*
X156784009Y-68204047D01*
X156784009Y-68204047D02*
X156736390Y-68299285D01*
X156736390Y-68299285D02*
X156688771Y-68346904D01*
X156688771Y-68346904D02*
X156593533Y-68394523D01*
X156593533Y-68394523D02*
X156403057Y-68394523D01*
X156403057Y-68394523D02*
X156307819Y-68346904D01*
X156307819Y-68346904D02*
X156260200Y-68299285D01*
X156260200Y-68299285D02*
X156212580Y-68204047D01*
X156212580Y-68204047D02*
X156212580Y-68013571D01*
X156212580Y-68013571D02*
X156260200Y-67918333D01*
X156260200Y-67918333D02*
X156307819Y-67870714D01*
X156307819Y-67870714D02*
X156403057Y-67823095D01*
X156403057Y-67823095D02*
X156593533Y-67823095D01*
X156593533Y-67823095D02*
X156688771Y-67870714D01*
X156688771Y-67870714D02*
X156736390Y-67918333D01*
X156736390Y-67918333D02*
X156784009Y-68013571D01*
X157212580Y-66918333D02*
X157212580Y-67394523D01*
X157212580Y-67394523D02*
X156736390Y-67442142D01*
X156736390Y-67442142D02*
X156784009Y-67394523D01*
X156784009Y-67394523D02*
X156831628Y-67299285D01*
X156831628Y-67299285D02*
X156831628Y-67061190D01*
X156831628Y-67061190D02*
X156784009Y-66965952D01*
X156784009Y-66965952D02*
X156736390Y-66918333D01*
X156736390Y-66918333D02*
X156641152Y-66870714D01*
X156641152Y-66870714D02*
X156403057Y-66870714D01*
X156403057Y-66870714D02*
X156307819Y-66918333D01*
X156307819Y-66918333D02*
X156260200Y-66965952D01*
X156260200Y-66965952D02*
X156212580Y-67061190D01*
X156212580Y-67061190D02*
X156212580Y-67299285D01*
X156212580Y-67299285D02*
X156260200Y-67394523D01*
X156260200Y-67394523D02*
X156307819Y-67442142D01*
D11*
X106560835Y-53970713D02*
X107310835Y-53970713D01*
X107310835Y-53970713D02*
X106560835Y-53542142D01*
X106560835Y-53542142D02*
X107310835Y-53542142D01*
X106560835Y-52756428D02*
X106917978Y-53006428D01*
X106560835Y-53184999D02*
X107310835Y-53184999D01*
X107310835Y-53184999D02*
X107310835Y-52899285D01*
X107310835Y-52899285D02*
X107275121Y-52827856D01*
X107275121Y-52827856D02*
X107239407Y-52792142D01*
X107239407Y-52792142D02*
X107167978Y-52756428D01*
X107167978Y-52756428D02*
X107060835Y-52756428D01*
X107060835Y-52756428D02*
X106989407Y-52792142D01*
X106989407Y-52792142D02*
X106953692Y-52827856D01*
X106953692Y-52827856D02*
X106917978Y-52899285D01*
X106917978Y-52899285D02*
X106917978Y-53184999D01*
X106953692Y-52184999D02*
X106953692Y-52434999D01*
X106560835Y-52434999D02*
X107310835Y-52434999D01*
X107310835Y-52434999D02*
X107310835Y-52077856D01*
X141959580Y-74033333D02*
X142007200Y-73985714D01*
X142007200Y-73985714D02*
X142054819Y-73842857D01*
X142054819Y-73842857D02*
X142054819Y-73747619D01*
X142054819Y-73747619D02*
X142007200Y-73604762D01*
X142007200Y-73604762D02*
X141911961Y-73509524D01*
X141911961Y-73509524D02*
X141816723Y-73461905D01*
X141816723Y-73461905D02*
X141626247Y-73414286D01*
X141626247Y-73414286D02*
X141483390Y-73414286D01*
X141483390Y-73414286D02*
X141292914Y-73461905D01*
X141292914Y-73461905D02*
X141197676Y-73509524D01*
X141197676Y-73509524D02*
X141102438Y-73604762D01*
X141102438Y-73604762D02*
X141054819Y-73747619D01*
X141054819Y-73747619D02*
X141054819Y-73842857D01*
X141054819Y-73842857D02*
X141102438Y-73985714D01*
X141102438Y-73985714D02*
X141150057Y-74033333D01*
X141054819Y-74366667D02*
X141054819Y-74985714D01*
X141054819Y-74985714D02*
X141435771Y-74652381D01*
X141435771Y-74652381D02*
X141435771Y-74795238D01*
X141435771Y-74795238D02*
X141483390Y-74890476D01*
X141483390Y-74890476D02*
X141531009Y-74938095D01*
X141531009Y-74938095D02*
X141626247Y-74985714D01*
X141626247Y-74985714D02*
X141864342Y-74985714D01*
X141864342Y-74985714D02*
X141959580Y-74938095D01*
X141959580Y-74938095D02*
X142007200Y-74890476D01*
X142007200Y-74890476D02*
X142054819Y-74795238D01*
X142054819Y-74795238D02*
X142054819Y-74509524D01*
X142054819Y-74509524D02*
X142007200Y-74414286D01*
X142007200Y-74414286D02*
X141959580Y-74366667D01*
X142359580Y-79833333D02*
X142407200Y-79785714D01*
X142407200Y-79785714D02*
X142454819Y-79642857D01*
X142454819Y-79642857D02*
X142454819Y-79547619D01*
X142454819Y-79547619D02*
X142407200Y-79404762D01*
X142407200Y-79404762D02*
X142311961Y-79309524D01*
X142311961Y-79309524D02*
X142216723Y-79261905D01*
X142216723Y-79261905D02*
X142026247Y-79214286D01*
X142026247Y-79214286D02*
X141883390Y-79214286D01*
X141883390Y-79214286D02*
X141692914Y-79261905D01*
X141692914Y-79261905D02*
X141597676Y-79309524D01*
X141597676Y-79309524D02*
X141502438Y-79404762D01*
X141502438Y-79404762D02*
X141454819Y-79547619D01*
X141454819Y-79547619D02*
X141454819Y-79642857D01*
X141454819Y-79642857D02*
X141502438Y-79785714D01*
X141502438Y-79785714D02*
X141550057Y-79833333D01*
X141788152Y-80690476D02*
X142454819Y-80690476D01*
X141407200Y-80452381D02*
X142121485Y-80214286D01*
X142121485Y-80214286D02*
X142121485Y-80833333D01*
X163914819Y-95477143D02*
X163438628Y-95143810D01*
X163914819Y-94905715D02*
X162914819Y-94905715D01*
X162914819Y-94905715D02*
X162914819Y-95286667D01*
X162914819Y-95286667D02*
X162962438Y-95381905D01*
X162962438Y-95381905D02*
X163010057Y-95429524D01*
X163010057Y-95429524D02*
X163105295Y-95477143D01*
X163105295Y-95477143D02*
X163248152Y-95477143D01*
X163248152Y-95477143D02*
X163343390Y-95429524D01*
X163343390Y-95429524D02*
X163391009Y-95381905D01*
X163391009Y-95381905D02*
X163438628Y-95286667D01*
X163438628Y-95286667D02*
X163438628Y-94905715D01*
X163010057Y-95858096D02*
X162962438Y-95905715D01*
X162962438Y-95905715D02*
X162914819Y-96000953D01*
X162914819Y-96000953D02*
X162914819Y-96239048D01*
X162914819Y-96239048D02*
X162962438Y-96334286D01*
X162962438Y-96334286D02*
X163010057Y-96381905D01*
X163010057Y-96381905D02*
X163105295Y-96429524D01*
X163105295Y-96429524D02*
X163200533Y-96429524D01*
X163200533Y-96429524D02*
X163343390Y-96381905D01*
X163343390Y-96381905D02*
X163914819Y-95810477D01*
X163914819Y-95810477D02*
X163914819Y-96429524D01*
X149162200Y-45438095D02*
X149209819Y-45580952D01*
X149209819Y-45580952D02*
X149209819Y-45819047D01*
X149209819Y-45819047D02*
X149162200Y-45914285D01*
X149162200Y-45914285D02*
X149114580Y-45961904D01*
X149114580Y-45961904D02*
X149019342Y-46009523D01*
X149019342Y-46009523D02*
X148924104Y-46009523D01*
X148924104Y-46009523D02*
X148828866Y-45961904D01*
X148828866Y-45961904D02*
X148781247Y-45914285D01*
X148781247Y-45914285D02*
X148733628Y-45819047D01*
X148733628Y-45819047D02*
X148686009Y-45628571D01*
X148686009Y-45628571D02*
X148638390Y-45533333D01*
X148638390Y-45533333D02*
X148590771Y-45485714D01*
X148590771Y-45485714D02*
X148495533Y-45438095D01*
X148495533Y-45438095D02*
X148400295Y-45438095D01*
X148400295Y-45438095D02*
X148305057Y-45485714D01*
X148305057Y-45485714D02*
X148257438Y-45533333D01*
X148257438Y-45533333D02*
X148209819Y-45628571D01*
X148209819Y-45628571D02*
X148209819Y-45866666D01*
X148209819Y-45866666D02*
X148257438Y-46009523D01*
X148543152Y-46438095D02*
X149543152Y-46438095D01*
X148590771Y-46438095D02*
X148543152Y-46533333D01*
X148543152Y-46533333D02*
X148543152Y-46723809D01*
X148543152Y-46723809D02*
X148590771Y-46819047D01*
X148590771Y-46819047D02*
X148638390Y-46866666D01*
X148638390Y-46866666D02*
X148733628Y-46914285D01*
X148733628Y-46914285D02*
X149019342Y-46914285D01*
X149019342Y-46914285D02*
X149114580Y-46866666D01*
X149114580Y-46866666D02*
X149162200Y-46819047D01*
X149162200Y-46819047D02*
X149209819Y-46723809D01*
X149209819Y-46723809D02*
X149209819Y-46533333D01*
X149209819Y-46533333D02*
X149162200Y-46438095D01*
X149162200Y-47723809D02*
X149209819Y-47628571D01*
X149209819Y-47628571D02*
X149209819Y-47438095D01*
X149209819Y-47438095D02*
X149162200Y-47342857D01*
X149162200Y-47342857D02*
X149066961Y-47295238D01*
X149066961Y-47295238D02*
X148686009Y-47295238D01*
X148686009Y-47295238D02*
X148590771Y-47342857D01*
X148590771Y-47342857D02*
X148543152Y-47438095D01*
X148543152Y-47438095D02*
X148543152Y-47628571D01*
X148543152Y-47628571D02*
X148590771Y-47723809D01*
X148590771Y-47723809D02*
X148686009Y-47771428D01*
X148686009Y-47771428D02*
X148781247Y-47771428D01*
X148781247Y-47771428D02*
X148876485Y-47295238D01*
X149209819Y-48628571D02*
X148686009Y-48628571D01*
X148686009Y-48628571D02*
X148590771Y-48580952D01*
X148590771Y-48580952D02*
X148543152Y-48485714D01*
X148543152Y-48485714D02*
X148543152Y-48295238D01*
X148543152Y-48295238D02*
X148590771Y-48200000D01*
X149162200Y-48628571D02*
X149209819Y-48533333D01*
X149209819Y-48533333D02*
X149209819Y-48295238D01*
X149209819Y-48295238D02*
X149162200Y-48200000D01*
X149162200Y-48200000D02*
X149066961Y-48152381D01*
X149066961Y-48152381D02*
X148971723Y-48152381D01*
X148971723Y-48152381D02*
X148876485Y-48200000D01*
X148876485Y-48200000D02*
X148828866Y-48295238D01*
X148828866Y-48295238D02*
X148828866Y-48533333D01*
X148828866Y-48533333D02*
X148781247Y-48628571D01*
X149209819Y-49104762D02*
X148209819Y-49104762D01*
X148828866Y-49200000D02*
X149209819Y-49485714D01*
X148543152Y-49485714D02*
X148924104Y-49104762D01*
X149162200Y-50295238D02*
X149209819Y-50200000D01*
X149209819Y-50200000D02*
X149209819Y-50009524D01*
X149209819Y-50009524D02*
X149162200Y-49914286D01*
X149162200Y-49914286D02*
X149066961Y-49866667D01*
X149066961Y-49866667D02*
X148686009Y-49866667D01*
X148686009Y-49866667D02*
X148590771Y-49914286D01*
X148590771Y-49914286D02*
X148543152Y-50009524D01*
X148543152Y-50009524D02*
X148543152Y-50200000D01*
X148543152Y-50200000D02*
X148590771Y-50295238D01*
X148590771Y-50295238D02*
X148686009Y-50342857D01*
X148686009Y-50342857D02*
X148781247Y-50342857D01*
X148781247Y-50342857D02*
X148876485Y-49866667D01*
X149209819Y-50771429D02*
X148543152Y-50771429D01*
X148733628Y-50771429D02*
X148638390Y-50819048D01*
X148638390Y-50819048D02*
X148590771Y-50866667D01*
X148590771Y-50866667D02*
X148543152Y-50961905D01*
X148543152Y-50961905D02*
X148543152Y-51057143D01*
X113476666Y-58809580D02*
X113524285Y-58857200D01*
X113524285Y-58857200D02*
X113667142Y-58904819D01*
X113667142Y-58904819D02*
X113762380Y-58904819D01*
X113762380Y-58904819D02*
X113905237Y-58857200D01*
X113905237Y-58857200D02*
X114000475Y-58761961D01*
X114000475Y-58761961D02*
X114048094Y-58666723D01*
X114048094Y-58666723D02*
X114095713Y-58476247D01*
X114095713Y-58476247D02*
X114095713Y-58333390D01*
X114095713Y-58333390D02*
X114048094Y-58142914D01*
X114048094Y-58142914D02*
X114000475Y-58047676D01*
X114000475Y-58047676D02*
X113905237Y-57952438D01*
X113905237Y-57952438D02*
X113762380Y-57904819D01*
X113762380Y-57904819D02*
X113667142Y-57904819D01*
X113667142Y-57904819D02*
X113524285Y-57952438D01*
X113524285Y-57952438D02*
X113476666Y-58000057D01*
X112524285Y-58904819D02*
X113095713Y-58904819D01*
X112809999Y-58904819D02*
X112809999Y-57904819D01*
X112809999Y-57904819D02*
X112905237Y-58047676D01*
X112905237Y-58047676D02*
X113000475Y-58142914D01*
X113000475Y-58142914D02*
X113095713Y-58190533D01*
X149019580Y-95613333D02*
X149067200Y-95565714D01*
X149067200Y-95565714D02*
X149114819Y-95422857D01*
X149114819Y-95422857D02*
X149114819Y-95327619D01*
X149114819Y-95327619D02*
X149067200Y-95184762D01*
X149067200Y-95184762D02*
X148971961Y-95089524D01*
X148971961Y-95089524D02*
X148876723Y-95041905D01*
X148876723Y-95041905D02*
X148686247Y-94994286D01*
X148686247Y-94994286D02*
X148543390Y-94994286D01*
X148543390Y-94994286D02*
X148352914Y-95041905D01*
X148352914Y-95041905D02*
X148257676Y-95089524D01*
X148257676Y-95089524D02*
X148162438Y-95184762D01*
X148162438Y-95184762D02*
X148114819Y-95327619D01*
X148114819Y-95327619D02*
X148114819Y-95422857D01*
X148114819Y-95422857D02*
X148162438Y-95565714D01*
X148162438Y-95565714D02*
X148210057Y-95613333D01*
X148210057Y-95994286D02*
X148162438Y-96041905D01*
X148162438Y-96041905D02*
X148114819Y-96137143D01*
X148114819Y-96137143D02*
X148114819Y-96375238D01*
X148114819Y-96375238D02*
X148162438Y-96470476D01*
X148162438Y-96470476D02*
X148210057Y-96518095D01*
X148210057Y-96518095D02*
X148305295Y-96565714D01*
X148305295Y-96565714D02*
X148400533Y-96565714D01*
X148400533Y-96565714D02*
X148543390Y-96518095D01*
X148543390Y-96518095D02*
X149114819Y-95946667D01*
X149114819Y-95946667D02*
X149114819Y-96565714D01*
%TO.C,R1*%
D12*
X154630000Y-91920000D02*
X154960000Y-91920000D01*
X154630000Y-98460000D02*
X154630000Y-91920000D01*
X154960000Y-98460000D02*
X154630000Y-98460000D01*
X157040000Y-98460000D02*
X157370000Y-98460000D01*
X157370000Y-91920000D02*
X157040000Y-91920000D01*
X157370000Y-98460000D02*
X157370000Y-91920000D01*
%TO.C,LM385*%
D10*
X149380000Y-50040000D02*
X163020000Y-50040000D01*
X163020000Y-90040000D01*
X149380000Y-90040000D01*
X149380000Y-50040000D01*
%TO.C,nrf1*%
X106138000Y-49270000D02*
X118838000Y-49270000D01*
X118838000Y-56890000D01*
X106138000Y-56890000D01*
X106138000Y-49270000D01*
%TO.C,C3*%
D12*
X142410000Y-73998000D02*
X142410000Y-74802000D01*
X142450000Y-73767000D02*
X142450000Y-75033000D01*
X142490000Y-73599000D02*
X142490000Y-75201000D01*
X142530000Y-73461000D02*
X142530000Y-75339000D01*
X142570000Y-73342000D02*
X142570000Y-75458000D01*
X142610000Y-73235000D02*
X142610000Y-75565000D01*
X142650000Y-73139000D02*
X142650000Y-75661000D01*
X142690000Y-73050000D02*
X142690000Y-75750000D01*
X142730000Y-72968000D02*
X142730000Y-75832000D01*
X142770000Y-72891000D02*
X142770000Y-75909000D01*
X142810000Y-72819000D02*
X142810000Y-75981000D01*
X142850000Y-72751000D02*
X142850000Y-76049000D01*
X142890000Y-72686000D02*
X142890000Y-76114000D01*
X142930000Y-72625000D02*
X142930000Y-76175000D01*
X142970000Y-72566000D02*
X142970000Y-76234000D01*
X143010000Y-72510000D02*
X143010000Y-76290000D01*
X143050000Y-72457000D02*
X143050000Y-76343000D01*
X143090000Y-72405000D02*
X143090000Y-76395000D01*
X143130000Y-72356000D02*
X143130000Y-76444000D01*
X143170000Y-72309000D02*
X143170000Y-76491000D01*
X143210000Y-72263000D02*
X143210000Y-76537000D01*
X143250000Y-72219000D02*
X143250000Y-76581000D01*
X143290000Y-72177000D02*
X143290000Y-76623000D01*
X143330000Y-72136000D02*
X143330000Y-76664000D01*
X143370000Y-72096000D02*
X143370000Y-73360000D01*
X143370000Y-75440000D02*
X143370000Y-76704000D01*
X143410000Y-72058000D02*
X143410000Y-73360000D01*
X143410000Y-75440000D02*
X143410000Y-76742000D01*
X143450000Y-72021000D02*
X143450000Y-73360000D01*
X143450000Y-75440000D02*
X143450000Y-76779000D01*
X143490000Y-71985000D02*
X143490000Y-73360000D01*
X143490000Y-75440000D02*
X143490000Y-76815000D01*
X143530000Y-71950000D02*
X143530000Y-73360000D01*
X143530000Y-75440000D02*
X143530000Y-76850000D01*
X143570000Y-71917000D02*
X143570000Y-73360000D01*
X143570000Y-75440000D02*
X143570000Y-76883000D01*
X143610000Y-71884000D02*
X143610000Y-73360000D01*
X143610000Y-75440000D02*
X143610000Y-76916000D01*
X143650000Y-71853000D02*
X143650000Y-73360000D01*
X143650000Y-75440000D02*
X143650000Y-76947000D01*
X143690000Y-71823000D02*
X143690000Y-73360000D01*
X143690000Y-75440000D02*
X143690000Y-76977000D01*
X143730000Y-71793000D02*
X143730000Y-73360000D01*
X143730000Y-75440000D02*
X143730000Y-77007000D01*
X143770000Y-71764000D02*
X143770000Y-73360000D01*
X143770000Y-75440000D02*
X143770000Y-77036000D01*
X143810000Y-71737000D02*
X143810000Y-73360000D01*
X143810000Y-75440000D02*
X143810000Y-77063000D01*
X143850000Y-71710000D02*
X143850000Y-73360000D01*
X143850000Y-75440000D02*
X143850000Y-77090000D01*
X143890000Y-71684000D02*
X143890000Y-73360000D01*
X143890000Y-75440000D02*
X143890000Y-77116000D01*
X143930000Y-71659000D02*
X143930000Y-73360000D01*
X143930000Y-75440000D02*
X143930000Y-77141000D01*
X143970000Y-71635000D02*
X143970000Y-73360000D01*
X143970000Y-75440000D02*
X143970000Y-77165000D01*
X144010000Y-71611000D02*
X144010000Y-73360000D01*
X144010000Y-75440000D02*
X144010000Y-77189000D01*
X144050000Y-71588000D02*
X144050000Y-73360000D01*
X144050000Y-75440000D02*
X144050000Y-77212000D01*
X144090000Y-71566000D02*
X144090000Y-73360000D01*
X144090000Y-75440000D02*
X144090000Y-77234000D01*
X144130000Y-71545000D02*
X144130000Y-73360000D01*
X144130000Y-75440000D02*
X144130000Y-77255000D01*
X144170000Y-71524000D02*
X144170000Y-73360000D01*
X144170000Y-75440000D02*
X144170000Y-77276000D01*
X144210000Y-71504000D02*
X144210000Y-73360000D01*
X144210000Y-75440000D02*
X144210000Y-77296000D01*
X144250000Y-71485000D02*
X144250000Y-73360000D01*
X144250000Y-75440000D02*
X144250000Y-77315000D01*
X144290000Y-71466000D02*
X144290000Y-73360000D01*
X144290000Y-75440000D02*
X144290000Y-77334000D01*
X144330000Y-71448000D02*
X144330000Y-73360000D01*
X144330000Y-75440000D02*
X144330000Y-77352000D01*
X144370000Y-71431000D02*
X144370000Y-73360000D01*
X144370000Y-75440000D02*
X144370000Y-77369000D01*
X144410000Y-71414000D02*
X144410000Y-73360000D01*
X144410000Y-75440000D02*
X144410000Y-77386000D01*
X144450000Y-71398000D02*
X144450000Y-73360000D01*
X144450000Y-75440000D02*
X144450000Y-77402000D01*
X144490000Y-71383000D02*
X144490000Y-73360000D01*
X144490000Y-75440000D02*
X144490000Y-77417000D01*
X144530000Y-71368000D02*
X144530000Y-73360000D01*
X144530000Y-75440000D02*
X144530000Y-77432000D01*
X144570000Y-71353000D02*
X144570000Y-73360000D01*
X144570000Y-75440000D02*
X144570000Y-77447000D01*
X144610000Y-71340000D02*
X144610000Y-73360000D01*
X144610000Y-75440000D02*
X144610000Y-77460000D01*
X144650000Y-71327000D02*
X144650000Y-73360000D01*
X144650000Y-75440000D02*
X144650000Y-77473000D01*
X144690000Y-71314000D02*
X144690000Y-73360000D01*
X144690000Y-75440000D02*
X144690000Y-77486000D01*
X144730000Y-71302000D02*
X144730000Y-73360000D01*
X144730000Y-75440000D02*
X144730000Y-77498000D01*
X144770000Y-71291000D02*
X144770000Y-73360000D01*
X144770000Y-75440000D02*
X144770000Y-77509000D01*
X144810000Y-71280000D02*
X144810000Y-73360000D01*
X144810000Y-75440000D02*
X144810000Y-77520000D01*
X144850000Y-71269000D02*
X144850000Y-73360000D01*
X144850000Y-75440000D02*
X144850000Y-77531000D01*
X144890000Y-71260000D02*
X144890000Y-73360000D01*
X144890000Y-75440000D02*
X144890000Y-77540000D01*
X144930000Y-71250000D02*
X144930000Y-73360000D01*
X144930000Y-75440000D02*
X144930000Y-77550000D01*
X144970000Y-71241000D02*
X144970000Y-73360000D01*
X144970000Y-75440000D02*
X144970000Y-77559000D01*
X145010000Y-71233000D02*
X145010000Y-73360000D01*
X145010000Y-75440000D02*
X145010000Y-77567000D01*
X145050000Y-71226000D02*
X145050000Y-73360000D01*
X145050000Y-75440000D02*
X145050000Y-77574000D01*
X145090000Y-71218000D02*
X145090000Y-73360000D01*
X145090000Y-75440000D02*
X145090000Y-77582000D01*
X145130000Y-71212000D02*
X145130000Y-73360000D01*
X145130000Y-75440000D02*
X145130000Y-77588000D01*
X145170000Y-71205000D02*
X145170000Y-73360000D01*
X145170000Y-75440000D02*
X145170000Y-77595000D01*
X145210000Y-71200000D02*
X145210000Y-73360000D01*
X145210000Y-75440000D02*
X145210000Y-77600000D01*
X145250000Y-71195000D02*
X145250000Y-73360000D01*
X145250000Y-75440000D02*
X145250000Y-77605000D01*
X145290000Y-71190000D02*
X145290000Y-73360000D01*
X145290000Y-75440000D02*
X145290000Y-77610000D01*
X145330000Y-71186000D02*
X145330000Y-73360000D01*
X145330000Y-75440000D02*
X145330000Y-77614000D01*
X145370000Y-71182000D02*
X145370000Y-73360000D01*
X145370000Y-75440000D02*
X145370000Y-77618000D01*
X145410000Y-71179000D02*
X145410000Y-73360000D01*
X145410000Y-75440000D02*
X145410000Y-77621000D01*
X145450000Y-71176000D02*
X145450000Y-77624000D01*
X145490000Y-71174000D02*
X145490000Y-77626000D01*
X145530000Y-71172000D02*
X145530000Y-77628000D01*
X145570000Y-71171000D02*
X145570000Y-77629000D01*
X145610000Y-71170000D02*
X145610000Y-77630000D01*
X145650000Y-71170000D02*
X145650000Y-77630000D01*
X148835241Y-72246000D02*
X148835241Y-72876000D01*
X149150241Y-72561000D02*
X148520241Y-72561000D01*
X148920000Y-74400000D02*
G75*
G02*
X142380000Y-74400000I-3270000J0D01*
G01*
X142380000Y-74400000D02*
G75*
G02*
X148920000Y-74400000I3270000J0D01*
G01*
%TO.C,C4*%
X143030000Y-78830000D02*
X143030000Y-81570000D01*
X143030000Y-81570000D02*
X148270000Y-81570000D01*
X148270000Y-78830000D02*
X143030000Y-78830000D01*
X148270000Y-81570000D02*
X148270000Y-78830000D01*
%TO.C,R2*%
X159830000Y-91920000D02*
X159830000Y-98460000D01*
X159830000Y-98460000D02*
X160160000Y-98460000D01*
X160160000Y-91920000D02*
X159830000Y-91920000D01*
X162240000Y-91920000D02*
X162570000Y-91920000D01*
X162570000Y-91920000D02*
X162570000Y-98460000D01*
X162570000Y-98460000D02*
X162240000Y-98460000D01*
%TO.C,J1*%
X149755000Y-49580000D02*
X149755000Y-46820000D01*
X152405000Y-46820000D02*
X149755000Y-46820000D01*
X152405000Y-49580000D02*
X149755000Y-49580000D01*
X152405000Y-49580000D02*
X152405000Y-46820000D01*
X153675000Y-49580000D02*
X155055000Y-49580000D01*
X155055000Y-49580000D02*
X155055000Y-48200000D01*
%TO.C,C1*%
X110070000Y-62448000D02*
X110070000Y-63252000D01*
X110110000Y-62217000D02*
X110110000Y-63483000D01*
X110150000Y-62049000D02*
X110150000Y-63651000D01*
X110190000Y-61911000D02*
X110190000Y-63789000D01*
X110230000Y-61792000D02*
X110230000Y-63908000D01*
X110270000Y-61685000D02*
X110270000Y-64015000D01*
X110310000Y-61589000D02*
X110310000Y-64111000D01*
X110350000Y-61500000D02*
X110350000Y-64200000D01*
X110390000Y-61418000D02*
X110390000Y-64282000D01*
X110430000Y-61341000D02*
X110430000Y-64359000D01*
X110470000Y-61269000D02*
X110470000Y-64431000D01*
X110510000Y-61201000D02*
X110510000Y-64499000D01*
X110550000Y-61136000D02*
X110550000Y-64564000D01*
X110590000Y-61075000D02*
X110590000Y-64625000D01*
X110630000Y-61016000D02*
X110630000Y-64684000D01*
X110670000Y-60960000D02*
X110670000Y-64740000D01*
X110710000Y-60907000D02*
X110710000Y-64793000D01*
X110750000Y-60855000D02*
X110750000Y-64845000D01*
X110790000Y-60806000D02*
X110790000Y-64894000D01*
X110830000Y-60759000D02*
X110830000Y-64941000D01*
X110870000Y-60713000D02*
X110870000Y-64987000D01*
X110910000Y-60669000D02*
X110910000Y-65031000D01*
X110950000Y-60627000D02*
X110950000Y-65073000D01*
X110990000Y-60586000D02*
X110990000Y-65114000D01*
X111030000Y-60546000D02*
X111030000Y-61810000D01*
X111030000Y-63890000D02*
X111030000Y-65154000D01*
X111070000Y-60508000D02*
X111070000Y-61810000D01*
X111070000Y-63890000D02*
X111070000Y-65192000D01*
X111110000Y-60471000D02*
X111110000Y-61810000D01*
X111110000Y-63890000D02*
X111110000Y-65229000D01*
X111150000Y-60435000D02*
X111150000Y-61810000D01*
X111150000Y-63890000D02*
X111150000Y-65265000D01*
X111190000Y-60400000D02*
X111190000Y-61810000D01*
X111190000Y-63890000D02*
X111190000Y-65300000D01*
X111230000Y-60367000D02*
X111230000Y-61810000D01*
X111230000Y-63890000D02*
X111230000Y-65333000D01*
X111270000Y-60334000D02*
X111270000Y-61810000D01*
X111270000Y-63890000D02*
X111270000Y-65366000D01*
X111310000Y-60303000D02*
X111310000Y-61810000D01*
X111310000Y-63890000D02*
X111310000Y-65397000D01*
X111350000Y-60273000D02*
X111350000Y-61810000D01*
X111350000Y-63890000D02*
X111350000Y-65427000D01*
X111390000Y-60243000D02*
X111390000Y-61810000D01*
X111390000Y-63890000D02*
X111390000Y-65457000D01*
X111430000Y-60214000D02*
X111430000Y-61810000D01*
X111430000Y-63890000D02*
X111430000Y-65486000D01*
X111470000Y-60187000D02*
X111470000Y-61810000D01*
X111470000Y-63890000D02*
X111470000Y-65513000D01*
X111510000Y-60160000D02*
X111510000Y-61810000D01*
X111510000Y-63890000D02*
X111510000Y-65540000D01*
X111550000Y-60134000D02*
X111550000Y-61810000D01*
X111550000Y-63890000D02*
X111550000Y-65566000D01*
X111590000Y-60109000D02*
X111590000Y-61810000D01*
X111590000Y-63890000D02*
X111590000Y-65591000D01*
X111630000Y-60085000D02*
X111630000Y-61810000D01*
X111630000Y-63890000D02*
X111630000Y-65615000D01*
X111670000Y-60061000D02*
X111670000Y-61810000D01*
X111670000Y-63890000D02*
X111670000Y-65639000D01*
X111710000Y-60038000D02*
X111710000Y-61810000D01*
X111710000Y-63890000D02*
X111710000Y-65662000D01*
X111750000Y-60016000D02*
X111750000Y-61810000D01*
X111750000Y-63890000D02*
X111750000Y-65684000D01*
X111790000Y-59995000D02*
X111790000Y-61810000D01*
X111790000Y-63890000D02*
X111790000Y-65705000D01*
X111830000Y-59974000D02*
X111830000Y-61810000D01*
X111830000Y-63890000D02*
X111830000Y-65726000D01*
X111870000Y-59954000D02*
X111870000Y-61810000D01*
X111870000Y-63890000D02*
X111870000Y-65746000D01*
X111910000Y-59935000D02*
X111910000Y-61810000D01*
X111910000Y-63890000D02*
X111910000Y-65765000D01*
X111950000Y-59916000D02*
X111950000Y-61810000D01*
X111950000Y-63890000D02*
X111950000Y-65784000D01*
X111990000Y-59898000D02*
X111990000Y-61810000D01*
X111990000Y-63890000D02*
X111990000Y-65802000D01*
X112030000Y-59881000D02*
X112030000Y-61810000D01*
X112030000Y-63890000D02*
X112030000Y-65819000D01*
X112070000Y-59864000D02*
X112070000Y-61810000D01*
X112070000Y-63890000D02*
X112070000Y-65836000D01*
X112110000Y-59848000D02*
X112110000Y-61810000D01*
X112110000Y-63890000D02*
X112110000Y-65852000D01*
X112150000Y-59833000D02*
X112150000Y-61810000D01*
X112150000Y-63890000D02*
X112150000Y-65867000D01*
X112190000Y-59818000D02*
X112190000Y-61810000D01*
X112190000Y-63890000D02*
X112190000Y-65882000D01*
X112230000Y-59803000D02*
X112230000Y-61810000D01*
X112230000Y-63890000D02*
X112230000Y-65897000D01*
X112270000Y-59790000D02*
X112270000Y-61810000D01*
X112270000Y-63890000D02*
X112270000Y-65910000D01*
X112310000Y-59777000D02*
X112310000Y-61810000D01*
X112310000Y-63890000D02*
X112310000Y-65923000D01*
X112350000Y-59764000D02*
X112350000Y-61810000D01*
X112350000Y-63890000D02*
X112350000Y-65936000D01*
X112390000Y-59752000D02*
X112390000Y-61810000D01*
X112390000Y-63890000D02*
X112390000Y-65948000D01*
X112430000Y-59741000D02*
X112430000Y-61810000D01*
X112430000Y-63890000D02*
X112430000Y-65959000D01*
X112470000Y-59730000D02*
X112470000Y-61810000D01*
X112470000Y-63890000D02*
X112470000Y-65970000D01*
X112510000Y-59719000D02*
X112510000Y-61810000D01*
X112510000Y-63890000D02*
X112510000Y-65981000D01*
X112550000Y-59710000D02*
X112550000Y-61810000D01*
X112550000Y-63890000D02*
X112550000Y-65990000D01*
X112590000Y-59700000D02*
X112590000Y-61810000D01*
X112590000Y-63890000D02*
X112590000Y-66000000D01*
X112630000Y-59691000D02*
X112630000Y-61810000D01*
X112630000Y-63890000D02*
X112630000Y-66009000D01*
X112670000Y-59683000D02*
X112670000Y-61810000D01*
X112670000Y-63890000D02*
X112670000Y-66017000D01*
X112710000Y-59676000D02*
X112710000Y-61810000D01*
X112710000Y-63890000D02*
X112710000Y-66024000D01*
X112750000Y-59668000D02*
X112750000Y-61810000D01*
X112750000Y-63890000D02*
X112750000Y-66032000D01*
X112790000Y-59662000D02*
X112790000Y-61810000D01*
X112790000Y-63890000D02*
X112790000Y-66038000D01*
X112830000Y-59655000D02*
X112830000Y-61810000D01*
X112830000Y-63890000D02*
X112830000Y-66045000D01*
X112870000Y-59650000D02*
X112870000Y-61810000D01*
X112870000Y-63890000D02*
X112870000Y-66050000D01*
X112910000Y-59645000D02*
X112910000Y-61810000D01*
X112910000Y-63890000D02*
X112910000Y-66055000D01*
X112950000Y-59640000D02*
X112950000Y-61810000D01*
X112950000Y-63890000D02*
X112950000Y-66060000D01*
X112990000Y-59636000D02*
X112990000Y-61810000D01*
X112990000Y-63890000D02*
X112990000Y-66064000D01*
X113030000Y-59632000D02*
X113030000Y-61810000D01*
X113030000Y-63890000D02*
X113030000Y-66068000D01*
X113070000Y-59629000D02*
X113070000Y-61810000D01*
X113070000Y-63890000D02*
X113070000Y-66071000D01*
X113110000Y-59626000D02*
X113110000Y-66074000D01*
X113150000Y-59624000D02*
X113150000Y-66076000D01*
X113190000Y-59622000D02*
X113190000Y-66078000D01*
X113230000Y-59621000D02*
X113230000Y-66079000D01*
X113270000Y-59620000D02*
X113270000Y-66080000D01*
X113310000Y-59620000D02*
X113310000Y-66080000D01*
X116495241Y-60696000D02*
X116495241Y-61326000D01*
X116810241Y-61011000D02*
X116180241Y-61011000D01*
X116580000Y-62850000D02*
G75*
G02*
X110040000Y-62850000I-3270000J0D01*
G01*
X110040000Y-62850000D02*
G75*
G02*
X116580000Y-62850000I3270000J0D01*
G01*
%TO.C,C2*%
X149830000Y-92130000D02*
X149830000Y-97370000D01*
X149830000Y-97370000D02*
X152570000Y-97370000D01*
X152570000Y-92130000D02*
X149830000Y-92130000D01*
X152570000Y-97370000D02*
X152570000Y-92130000D01*
%TD*%
M02*
